<?xml version="1.0" standalone="no"?>
<!DOCTYPE svg PUBLIC "-//W3C//DTD SVG 20010904//EN"
 "http://www.w3.org/TR/2001/REC-SVG-20010904/DTD/svg10.dtd">
<svg version="1.0" xmlns="http://www.w3.org/2000/svg"
 width="1876.000000pt" height="1876.000000pt" viewBox="0 0 1876.000000 1876.000000"
 preserveAspectRatio="xMidYMid meet">
<metadata>
Created by potrace 1.14, written by Peter Selinger 2001-2017
</metadata>
<g transform="translate(0.000000,1876.000000) scale(0.100000,-0.100000)"
fill="#000000" stroke="none">
<path d="M9297 18004 c-1 -1 -99 -5 -217 -9 -118 -4 -231 -8 -250 -10 -19 -1
-75 -6 -125 -9 -49 -4 -108 -9 -130 -11 -22 -2 -67 -7 -100 -10 -33 -3 -71 -8
-85 -10 -14 -2 -50 -6 -80 -9 -30 -4 -73 -9 -95 -11 -48 -7 -390 -62 -425 -70
-14 -3 -38 -7 -55 -10 -27 -4 -239 -49 -290 -61 -11 -3 -31 -7 -45 -10 -20 -4
-145 -36 -232 -59 -10 -3 -26 -7 -35 -9 -30 -7 -133 -36 -238 -69 -55 -16
-100 -29 -100 -28 0 3 -317 -106 -441 -153 -155 -57 -353 -139 -554 -228 -86
-38 -497 -245 -566 -285 -38 -22 -91 -53 -119 -68 -97 -53 -240 -140 -243
-147 -2 -5 -8 -8 -14 -8 -6 0 -26 -11 -44 -25 -18 -14 -35 -25 -39 -25 -8 0
-320 -209 -405 -271 -241 -176 -416 -313 -555 -432 -44 -38 -91 -78 -105 -90
-145 -123 -553 -521 -695 -677 -126 -139 -315 -362 -390 -460 -28 -36 -53 -67
-56 -70 -3 -3 -58 -76 -122 -162 -230 -311 -462 -671 -638 -993 -49 -91 -230
-451 -266 -530 -17 -38 -46 -101 -63 -139 -17 -38 -55 -130 -86 -205 -30 -75
-59 -145 -64 -156 -12 -27 -92 -252 -129 -363 -73 -218 -175 -570 -206 -712
-2 -8 -13 -58 -25 -110 -28 -125 -23 -101 -63 -305 -20 -99 -40 -216 -46 -261
-7 -44 -13 -89 -15 -100 -8 -40 -16 -101 -21 -154 -3 -30 -8 -62 -10 -70 -2
-8 -7 -49 -10 -90 -3 -41 -8 -88 -10 -105 -2 -16 -7 -68 -10 -115 -3 -47 -8
-101 -10 -120 -24 -198 -23 -916 0 -1215 6 -76 15 -170 20 -220 2 -27 7 -79
11 -115 5 -64 7 -75 18 -155 5 -37 9 -66 21 -156 3 -19 16 -99 29 -179 24
-139 30 -174 41 -230 3 -14 8 -38 11 -55 3 -16 9 -46 14 -65 5 -19 11 -46 14
-60 28 -157 124 -518 206 -775 62 -193 204 -585 240 -660 5 -11 29 -67 54
-125 308 -729 776 -1489 1311 -2130 76 -91 141 -167 145 -170 3 -3 51 -54 106
-115 109 -121 387 -401 504 -508 41 -38 91 -83 110 -101 267 -244 668 -551
1030 -790 145 -95 139 -92 352 -217 384 -227 815 -438 1178 -578 47 -18 99
-39 115 -46 74 -32 426 -152 594 -201 234 -69 616 -166 741 -188 14 -3 61 -12
105 -20 116 -22 127 -24 270 -46 72 -12 141 -23 155 -25 14 -2 48 -7 75 -10
28 -4 61 -8 75 -10 14 -2 57 -7 95 -11 39 -3 78 -8 88 -10 9 -1 56 -6 105 -9
48 -3 105 -8 127 -10 200 -20 888 -27 1129 -11 225 14 354 25 486 41 19 2 58
7 85 10 28 3 59 7 71 9 11 2 47 7 80 10 32 4 66 8 74 11 8 2 33 6 55 10 43 6
152 23 200 31 17 3 37 7 45 9 14 4 40 9 105 20 17 3 48 9 70 15 22 5 123 28
225 51 102 23 195 45 208 50 13 5 36 11 52 14 118 21 644 195 930 308 343 135
775 340 1060 504 207 119 446 266 477 292 7 6 15 11 18 11 6 0 200 132 271
184 23 17 52 38 64 46 77 52 487 374 510 400 3 3 39 34 80 69 191 162 515 477
700 681 52 58 102 112 110 120 9 8 29 31 45 51 30 36 222 266 256 306 127 153
503 690 594 850 6 10 41 69 78 131 37 62 67 115 67 119 0 3 6 14 14 22 26 30
250 467 336 656 101 221 225 534 310 780 65 190 176 559 194 645 3 14 9 40 15
58 5 18 10 35 10 37 1 3 1 6 2 8 0 1 2 11 4 22 2 11 15 67 29 125 13 58 27
123 32 145 4 22 8 42 9 45 1 3 5 25 9 50 5 25 10 54 12 65 2 11 7 34 9 50 3
17 8 37 10 45 2 8 7 35 10 60 3 25 13 83 21 129 8 46 17 109 20 139 3 30 7 64
9 75 3 10 9 64 15 120 6 56 12 120 15 142 2 22 7 74 10 115 3 41 8 95 10 120
23 241 23 963 0 1200 -2 19 -6 80 -10 135 -4 55 -9 107 -10 116 -2 9 -6 52
-10 95 -3 43 -8 86 -10 94 -2 8 -7 42 -11 75 -3 33 -8 67 -9 76 -2 9 -6 38
-10 65 -3 27 -7 56 -9 64 -1 8 -6 38 -10 65 -4 28 -11 70 -16 95 -5 25 -12 62
-15 83 -4 31 -28 151 -39 202 -2 6 -6 28 -10 50 -5 22 -14 65 -22 95 -7 30
-15 69 -18 85 -3 17 -24 98 -46 180 -23 83 -43 159 -45 170 -3 11 -21 72 -40
135 -20 63 -37 122 -39 131 -20 80 -195 563 -242 666 -13 28 -24 54 -24 58 0
39 -372 796 -460 935 -5 8 -18 31 -28 51 -46 83 -205 336 -310 493 -97 145
-333 471 -351 486 -3 3 -28 34 -56 70 -27 36 -59 76 -71 90 -12 14 -63 75
-114 135 -229 273 -621 673 -880 895 -14 12 -36 31 -50 44 -14 12 -77 64 -140
116 -63 52 -117 97 -120 101 -3 3 -89 69 -191 146 -733 551 -1556 988 -2414
1280 -196 66 -581 179 -700 203 -22 5 -47 11 -55 14 -8 3 -26 8 -40 10 -14 3
-38 8 -55 11 -16 3 -37 8 -45 11 -17 6 -299 62 -350 70 -19 3 -42 7 -50 9 -8
3 -33 7 -55 10 -22 3 -51 8 -65 10 -14 3 -43 7 -65 10 -22 3 -51 8 -65 10 -14
3 -47 7 -75 10 -27 3 -61 8 -75 10 -14 2 -54 6 -90 10 -36 4 -76 8 -90 10 -14
2 -52 6 -85 9 -181 15 -215 18 -270 21 -129 9 -623 23 -628 19z"/>
</g>
</svg>
