<svg width="170" height="53" viewBox="0 0 170 53" fill="none" xmlns="http://www.w3.org/2000/svg">
<rect width="170" height="53" rx="8" fill="black"/>
<path d="M70.795 11.545L66.85 22H65.275L61.33 11.545H62.785L66.07 20.56L69.355 11.545H70.795ZM72.9967 12.445C72.7367 12.445 72.5167 12.355 72.3367 12.175C72.1567 11.995 72.0667 11.775 72.0667 11.515C72.0667 11.255 72.1567 11.035 72.3367 10.855C72.5167 10.675 72.7367 10.585 72.9967 10.585C73.2467 10.585 73.4567 10.675 73.6267 10.855C73.8067 11.035 73.8967 11.255 73.8967 11.515C73.8967 11.775 73.8067 11.995 73.6267 12.175C73.4567 12.355 73.2467 12.445 72.9967 12.445ZM73.6567 13.78V22H72.2917V13.78H73.6567ZM78.8931 22.135C78.2631 22.135 77.6981 22.03 77.1981 21.82C76.6981 21.6 76.3031 21.3 76.0131 20.92C75.7231 20.53 75.5631 20.085 75.5331 19.585H76.9431C76.9831 19.995 77.1731 20.33 77.5131 20.59C77.8631 20.85 78.3181 20.98 78.8781 20.98C79.3981 20.98 79.8081 20.865 80.1081 20.635C80.4081 20.405 80.5581 20.115 80.5581 19.765C80.5581 19.405 80.3981 19.14 80.0781 18.97C79.7581 18.79 79.2631 18.615 78.5931 18.445C77.9831 18.285 77.4831 18.125 77.0931 17.965C76.7131 17.795 76.3831 17.55 76.1031 17.23C75.8331 16.9 75.6981 16.47 75.6981 15.94C75.6981 15.52 75.8231 15.135 76.0731 14.785C76.3231 14.435 76.6781 14.16 77.1381 13.96C77.5981 13.75 78.1231 13.645 78.7131 13.645C79.6231 13.645 80.3581 13.875 80.9181 14.335C81.4781 14.795 81.7781 15.425 81.8181 16.225H80.4531C80.4231 15.795 80.2481 15.45 79.9281 15.19C79.6181 14.93 79.1981 14.8 78.6681 14.8C78.1781 14.8 77.7881 14.905 77.4981 15.115C77.2081 15.325 77.0631 15.6 77.0631 15.94C77.0631 16.21 77.1481 16.435 77.3181 16.615C77.4981 16.785 77.7181 16.925 77.9781 17.035C78.2481 17.135 78.6181 17.25 79.0881 17.38C79.6781 17.54 80.1581 17.7 80.5281 17.86C80.8981 18.01 81.2131 18.24 81.4731 18.55C81.7431 18.86 81.8831 19.265 81.8931 19.765C81.8931 20.215 81.7681 20.62 81.5181 20.98C81.2681 21.34 80.9131 21.625 80.4531 21.835C80.0031 22.035 79.4831 22.135 78.8931 22.135ZM84.525 12.445C84.265 12.445 84.045 12.355 83.865 12.175C83.685 11.995 83.595 11.775 83.595 11.515C83.595 11.255 83.685 11.035 83.865 10.855C84.045 10.675 84.265 10.585 84.525 10.585C84.775 10.585 84.985 10.675 85.155 10.855C85.335 11.035 85.425 11.255 85.425 11.515C85.425 11.775 85.335 11.995 85.155 12.175C84.985 12.355 84.775 12.445 84.525 12.445ZM85.185 13.78V22H83.82V13.78H85.185ZM89.1764 14.905V19.75C89.1764 20.15 89.2614 20.435 89.4314 20.605C89.6014 20.765 89.8964 20.845 90.3164 20.845H91.3214V22H90.0914C89.3314 22 88.7614 21.825 88.3814 21.475C88.0014 21.125 87.8114 20.55 87.8114 19.75V14.905H86.7464V13.78H87.8114V11.71H89.1764V13.78H91.3214V14.905H89.1764Z" fill="white"/>
<path d="M82.042 28.342L77.947 43H74.482L71.731 32.563L68.854 43L65.41 43.021L61.462 28.342H64.612L67.195 39.724L70.177 28.342H73.453L76.267 39.661L78.871 28.342H82.042ZM94.7767 36.931C94.7767 37.351 94.7487 37.729 94.6927 38.065H86.1877C86.2577 38.905 86.5517 39.563 87.0697 40.039C87.5877 40.515 88.2247 40.753 88.9807 40.753C90.0727 40.753 90.8497 40.284 91.3117 39.346H94.4827C94.1467 40.466 93.5027 41.39 92.5507 42.118C91.5987 42.832 90.4297 43.189 89.0437 43.189C87.9237 43.189 86.9157 42.944 86.0197 42.454C85.1377 41.95 84.4447 41.243 83.9407 40.333C83.4507 39.423 83.2057 38.373 83.2057 37.183C83.2057 35.979 83.4507 34.922 83.9407 34.012C84.4307 33.102 85.1167 32.402 85.9987 31.912C86.8807 31.422 87.8957 31.177 89.0437 31.177C90.1497 31.177 91.1367 31.415 92.0047 31.891C92.8867 32.367 93.5657 33.046 94.0417 33.928C94.5317 34.796 94.7767 35.797 94.7767 36.931ZM91.7317 36.091C91.7177 35.335 91.4447 34.733 90.9127 34.285C90.3807 33.823 89.7297 33.592 88.9597 33.592C88.2317 33.592 87.6157 33.816 87.1117 34.264C86.6217 34.698 86.3207 35.307 86.2087 36.091H91.7317ZM99.8626 33.067C100.241 32.507 100.759 32.052 101.417 31.702C102.089 31.352 102.852 31.177 103.706 31.177C104.7 31.177 105.596 31.422 106.394 31.912C107.206 32.402 107.843 33.102 108.305 34.012C108.781 34.908 109.019 35.951 109.019 37.141C109.019 38.331 108.781 39.388 108.305 40.312C107.843 41.222 107.206 41.929 106.394 42.433C105.596 42.937 104.7 43.189 103.706 43.189C102.838 43.189 102.075 43.021 101.417 42.685C100.773 42.335 100.255 41.887 99.8626 41.341V43H96.9226V27.46H99.8626V33.067ZM106.016 37.141C106.016 36.441 105.869 35.839 105.575 35.335C105.295 34.817 104.917 34.425 104.441 34.159C103.979 33.893 103.475 33.76 102.929 33.76C102.397 33.76 101.893 33.9 101.417 34.18C100.955 34.446 100.577 34.838 100.283 35.356C100.003 35.874 99.8626 36.483 99.8626 37.183C99.8626 37.883 100.003 38.492 100.283 39.01C100.577 39.528 100.955 39.927 101.417 40.207C101.893 40.473 102.397 40.606 102.929 40.606C103.475 40.606 103.979 40.466 104.441 40.186C104.917 39.906 105.295 39.507 105.575 38.989C105.869 38.471 106.016 37.855 106.016 37.141ZM115.607 43.189C114.655 43.189 113.801 43.021 113.045 42.685C112.289 42.335 111.687 41.866 111.239 41.278C110.805 40.69 110.567 40.039 110.525 39.325H113.486C113.542 39.773 113.759 40.144 114.137 40.438C114.529 40.732 115.012 40.879 115.586 40.879C116.146 40.879 116.58 40.767 116.888 40.543C117.21 40.319 117.371 40.032 117.371 39.682C117.371 39.304 117.175 39.024 116.783 38.842C116.405 38.646 115.796 38.436 114.956 38.212C114.088 38.002 113.374 37.785 112.814 37.561C112.268 37.337 111.792 36.994 111.386 36.532C110.994 36.07 110.798 35.447 110.798 34.663C110.798 34.019 110.98 33.431 111.344 32.899C111.722 32.367 112.254 31.947 112.94 31.639C113.64 31.331 114.459 31.177 115.397 31.177C116.783 31.177 117.889 31.527 118.715 32.227C119.541 32.913 119.996 33.844 120.08 35.02H117.266C117.224 34.558 117.028 34.194 116.678 33.928C116.342 33.648 115.887 33.508 115.313 33.508C114.781 33.508 114.368 33.606 114.074 33.802C113.794 33.998 113.654 34.271 113.654 34.621C113.654 35.013 113.85 35.314 114.242 35.524C114.634 35.72 115.243 35.923 116.069 36.133C116.909 36.343 117.602 36.56 118.148 36.784C118.694 37.008 119.163 37.358 119.555 37.834C119.961 38.296 120.171 38.912 120.185 39.682C120.185 40.354 119.996 40.956 119.618 41.488C119.254 42.02 118.722 42.44 118.022 42.748C117.336 43.042 116.531 43.189 115.607 43.189ZM124.089 29.98C123.571 29.98 123.137 29.819 122.787 29.497C122.451 29.161 122.283 28.748 122.283 28.258C122.283 27.768 122.451 27.362 122.787 27.04C123.137 26.704 123.571 26.536 124.089 26.536C124.607 26.536 125.034 26.704 125.37 27.04C125.72 27.362 125.895 27.768 125.895 28.258C125.895 28.748 125.72 29.161 125.37 29.497C125.034 29.819 124.607 29.98 124.089 29.98ZM125.538 31.366V43H122.598V31.366H125.538ZM131.866 33.781V39.409C131.866 39.801 131.957 40.088 132.139 40.27C132.335 40.438 132.657 40.522 133.105 40.522H134.47V43H132.622C130.144 43 128.905 41.796 128.905 39.388V33.781H127.519V31.366H128.905V28.489H131.866V31.366H134.47V33.781H131.866ZM147.4 36.931C147.4 37.351 147.372 37.729 147.316 38.065H138.811C138.881 38.905 139.175 39.563 139.693 40.039C140.211 40.515 140.848 40.753 141.604 40.753C142.696 40.753 143.473 40.284 143.935 39.346H147.106C146.77 40.466 146.126 41.39 145.174 42.118C144.222 42.832 143.053 43.189 141.667 43.189C140.547 43.189 139.539 42.944 138.643 42.454C137.761 41.95 137.068 41.243 136.564 40.333C136.074 39.423 135.829 38.373 135.829 37.183C135.829 35.979 136.074 34.922 136.564 34.012C137.054 33.102 137.74 32.402 138.622 31.912C139.504 31.422 140.519 31.177 141.667 31.177C142.773 31.177 143.76 31.415 144.628 31.891C145.51 32.367 146.189 33.046 146.665 33.928C147.155 34.796 147.4 35.797 147.4 36.931ZM144.355 36.091C144.341 35.335 144.068 34.733 143.536 34.285C143.004 33.823 142.353 33.592 141.583 33.592C140.855 33.592 140.239 33.816 139.735 34.264C139.245 34.698 138.944 35.307 138.832 36.091H144.355Z" fill="white"/>
<path d="M46.1421 12.8579C42.3646 9.08032 37.3422 7 32 7C26.6578 7 21.6353 9.08032 17.8579 12.8578C14.0803 16.6353 12 21.6578 12 27C12 32.3422 14.0803 37.3647 17.8579 41.1422C21.6353 44.9197 26.6578 47 32 47C37.3423 47 42.3646 44.9197 46.1422 41.1421C49.9196 37.3647 52 32.3422 52 27C52 21.6578 49.9196 16.6353 46.1421 12.8579ZM19.5169 14.5169C21.2755 12.7582 23.3402 11.4168 25.5905 10.5413C24.9911 11.2895 24.4302 12.1496 23.9162 13.117C23.3193 14.2404 22.8042 15.4742 22.3752 16.7921C20.8891 16.5455 19.5122 16.2422 18.282 15.8863C18.6676 15.4124 19.0789 14.9549 19.5169 14.5169ZM16.8616 17.9051C18.3005 18.3658 19.9459 18.7543 21.7414 19.0621C21.2414 21.1844 20.9471 23.4682 20.8769 25.827H14.3856C14.57 22.9963 15.4202 20.2947 16.8616 17.9051ZM16.7339 35.878C15.3702 33.5422 14.5645 30.9186 14.3855 28.1731H20.8813C20.958 30.4644 21.2465 32.6833 21.7296 34.7501C19.8973 35.0472 18.2105 35.4258 16.7339 35.878ZM19.5169 39.4832C19.0184 38.9847 18.5542 38.4612 18.1238 37.9164C19.3991 37.5628 20.8247 37.2633 22.3593 37.0232C22.7913 38.3594 23.312 39.6095 23.9162 40.7468C24.4763 41.8009 25.0922 42.7272 25.7529 43.5206C23.4396 42.6469 21.3178 41.284 19.5169 39.4832ZM30.8269 44.3528C29.045 43.8537 27.3594 42.2265 25.9881 39.6458C25.5085 38.7433 25.0873 37.7587 24.7264 36.7094C26.6584 36.4967 28.7143 36.371 30.8269 36.3415V44.3528V44.3528ZM30.8269 33.9951C28.4841 34.0271 26.2005 34.1742 24.062 34.4254C23.5903 32.4753 23.3065 30.3646 23.2286 28.1732H30.827V33.9951H30.8269ZM30.8269 25.8269H23.2241C23.2953 23.5743 23.5837 21.4046 24.0701 19.4049C26.1949 19.6706 28.4737 19.8321 30.8269 19.8784V25.8269ZM30.8269 17.5319C28.7061 17.4892 26.6548 17.3509 24.7364 17.1253C25.0951 16.0868 25.513 15.1121 25.9881 14.2178C27.3593 11.6372 29.045 10.01 30.8269 9.51086V17.5319ZM47.2123 18.0297C48.6087 20.3885 49.4331 23.0453 49.6145 25.8269H43.1233C43.0538 23.4953 42.7652 21.2371 42.2756 19.1357C44.0829 18.8439 45.7488 18.4725 47.2123 18.0297ZM44.483 14.5169C44.9541 14.9879 45.3941 15.4817 45.8045 15.9942C44.5487 16.3371 43.1504 16.6281 41.6479 16.8624C41.2145 15.518 40.6914 14.2604 40.0838 13.117C39.5698 12.1496 39.009 11.2895 38.4096 10.5413C40.6598 11.4168 42.7245 12.7582 44.483 14.5169ZM33.1731 28.1732H40.7715C40.693 30.3816 40.4054 32.5083 39.927 34.471C37.8024 34.2069 35.5247 34.0468 33.1731 34.0018V28.1732ZM33.1731 25.8269V19.8862C35.5173 19.8554 37.8026 19.7096 39.9431 19.4593C40.4216 21.4439 40.7053 23.5946 40.7759 25.8269H33.1731ZM33.173 9.51086H33.173C34.9549 10.01 36.6405 11.6372 38.0118 14.2178C38.4945 15.1262 38.9181 16.1177 39.2805 17.1747C37.3459 17.3866 35.2877 17.5113 33.173 17.5399V9.51086V9.51086ZM33.1731 44.3528V36.3483C35.2919 36.3898 37.3416 36.5269 39.2593 36.7511C38.9016 37.7848 38.485 38.7553 38.0119 39.6458C36.6406 42.2265 34.955 43.8537 33.1731 44.3528ZM44.483 39.4832C42.6822 41.2841 40.5604 42.6469 38.247 43.5205C38.9077 42.7271 39.5236 41.8009 40.0837 40.7468C40.6791 39.6264 41.193 38.3962 41.6213 37.0822C43.142 37.3333 44.5488 37.6437 45.8021 38.0087C45.3925 38.5201 44.9532 39.013 44.483 39.4832ZM47.2036 35.9851C45.7477 35.5171 44.0786 35.1233 42.2562 34.8125C42.7481 32.7281 43.0413 30.4875 43.1188 28.1732H49.6146C49.4327 30.9605 48.6054 33.6226 47.2036 35.9851Z" fill="white"/>
</svg>
